<svg style="position: absolute; width: 0; height: 0; overflow: hidden;" version="1.1" xmlns="http://www.w3.org/2000/svg" xmlns:xlink="http://www.w3.org/1999/xlink">
<defs>
<symbol id="icon-facebook" viewBox="0 0 32 32">
<title>facebook</title>
<path fill="#3b5998" style="fill: var(--color1, #3b5998)" d="M16 0c8.837 0 16 7.164 16 16 0 8.837-7.163 16-16 16s-16-7.163-16-16c0-8.836 7.163-16 16-16z"></path>
<path fill="#fff" style="fill: var(--color2, #fff)" d="M17.948 11.015h2.062v-3.046h-2.424v0.011c-2.937 0.104-3.539 1.755-3.592 3.489h-0.006v1.521h-2v2.983h2v7.996h3.014v-7.996h2.469l0.477-2.983h-2.945v-0.919c0-0.586 0.39-1.056 0.945-1.056z"></path>
</symbol>
<symbol id="icon-github" viewBox="0 0 32 32">
<title>github</title>
<path fill="#3e77bf" style="fill: var(--color3, #3e77bf)" d="M15.999 0.333c-8.835 0-15.999 7.191-15.999 16.065 0 7.096 4.584 13.117 10.944 15.241 0.799 0.148 1.091-0.348 1.091-0.774 0-0.381-0.014-1.391-0.022-2.732-4.452 0.972-5.39-2.153-5.39-2.153-0.727-1.856-1.775-2.349-1.775-2.349-1.453-0.997 0.109-0.978 0.109-0.978 1.605 0.113 2.45 1.656 2.45 1.656 1.429 2.455 3.746 1.745 4.658 1.334 0.144-1.037 0.558-1.746 1.015-2.147-3.552-0.406-7.287-1.783-7.287-7.938 0-1.753 0.623-3.188 1.646-4.312-0.166-0.406-0.714-2.039 0.156-4.25 0 0 1.344-0.431 4.4 1.646 1.276-0.356 2.645-0.534 4.006-0.541 1.358 0.007 2.728 0.185 4.006 0.541 3.053-2.078 4.395-1.646 4.395-1.646 0.872 2.211 0.324 3.844 0.158 4.25 1.026 1.124 1.645 2.558 1.645 4.312 0 6.17-3.741 7.528-7.305 7.926 0.574 0.496 1.086 1.476 1.086 2.975 0 2.148-0.019 3.879-0.019 4.406 0 0.43 0.289 0.931 1.1 0.772 6.352-2.128 10.932-8.145 10.932-15.239 0-8.873-7.164-16.065-16.001-16.065z"></path>
<path fill="#114c82" style="fill: var(--color4, #114c82)" d="M24.419 7.041c0.847 2.187 0.307 3.802 0.142 4.205 1.026 1.124 1.645 2.558 1.645 4.312 0 6.17-3.741 7.528-7.305 7.926 0.574 0.496 1.086 1.476 1.086 2.975 0 2.148-0.019 3.879-0.019 4.406 0 0.43 0.289 0.931 1.1 0.772 6.353-2.128 10.932-8.145 10.932-15.239 0-1.907-0.332-3.735-0.94-5.432-2.206-2.323-4.661-3.869-6.641-3.925z"></path>
<path fill="#114c82" style="fill: var(--color4, #114c82)" d="M12.45 24.343c0.18-0.362 0.399-0.644 0.63-0.848-1.947-0.223-3.946-0.743-5.358-2.177 1.086 1.807 2.854 2.63 4.728 3.025z"></path>
<path fill="#6ca9ea" style="fill: var(--color5, #6ca9ea)" d="M0.833 17.48c0-8.873 7.164-16.065 15.999-16.065 4.906 0 9.294 2.219 12.228 5.709-2.898-4.108-7.666-6.792-13.061-6.792-8.835 0-15.999 7.191-15.999 16.065 0 3.956 1.427 7.576 3.79 10.374-1.859-2.623-2.957-5.827-2.957-9.291z"></path>
<path fill="#083e66" style="fill: var(--color6, #083e66)" d="M20.82 27.542c0-1.499-0.511-2.48-1.086-2.976 3.564-0.397 7.306-1.756 7.306-7.926 0-1.754-0.619-3.187-1.646-4.311 0.166-0.406 0.716-2.039-0.158-4.25 0 0-0.166-0.051-0.509-0.031 0.375 1.667-0.027 2.859-0.165 3.198 1.026 1.124 1.645 2.558 1.645 4.312 0 6.17-3.741 7.528-7.305 7.926 0.574 0.496 1.086 1.476 1.086 2.975 0 2.148-0.019 3.879-0.019 4.406 0 0.379 0.226 0.811 0.834 0.801 0.004-0.726 0.019-2.268 0.019-4.123z"></path>
<path fill="#114c82" style="fill: var(--color4, #114c82)" d="M7.578 27.355c0.336 0.692 1.465 2.348 4.444 1.999-0.004-0.364-0.007-0.773-0.009-1.221-2.298 0.502-3.655-0.090-4.435-0.778z"></path>
<path fill="#6ca9ea" style="fill: var(--color5, #6ca9ea)" d="M8.153 25.251c-0.103-0.155-0.295-0.418-0.574-0.68 0.181 0.269 0.374 0.494 0.574 0.68z"></path>
</symbol>
<symbol id="icon-google-plus" viewBox="0 0 32 32">
<title>google-plus</title>
<path fill="#dc4e41" style="fill: var(--color7, #dc4e41)" d="M32 16c0 8.837-7.163 16-16 16s-16-7.163-16-16c0-8.837 7.163-16 16-16s16 7.163 16 16z"></path>
<path fill="#dc4e41" style="fill: var(--color7, #dc4e41)" d="M5.571 16.716c-0.057 2.753 1.839 5.38 4.448 6.237 2.457 0.825 5.478 0.208 7.112-1.896 1.194-1.474 1.465-3.44 1.336-5.276-2.104-0.019-4.208-0.013-6.309-0.009-0.003 0.75 0 1.496 0.003 2.246 1.26 0.035 2.52 0.019 3.78 0.044-0.318 1.090-1.042 2.104-2.142 2.498-2.123 0.936-4.832-0.287-5.5-2.514-0.806-2.133 0.514-4.706 2.693-5.326 1.351-0.475 2.743 0.060 3.9 0.762 0.586-0.548 1.134-1.134 1.672-1.726-1.314-1.099-3.002-1.773-4.737-1.625-3.405 0.040-6.385 3.184-6.256 6.586z"></path>
<path fill="#dc4e41" style="fill: var(--color7, #dc4e41)" d="M22.561 13.881c-0.006 0.627-0.013 1.257-0.016 1.884-0.63 0.006-1.257 0.009-1.884 0.013 0 0.627 0 1.25 0 1.877 0.627 0.003 1.257 0.006 1.884 0.013 0.006 0.627 0.006 1.254 0.013 1.884 0.624 0 1.251-0.003 1.877 0 0.003-0.63 0.006-1.257 0.013-1.887 0.627-0.003 1.257-0.006 1.884-0.009 0-0.627 0-1.25 0-1.877-0.627-0.003-1.257-0.006-1.884-0.013-0.003-0.627-0.009-1.257-0.013-1.884-0.627-0-1.25-0-1.874-0z"></path>
<path fill="#fff" style="fill: var(--color2, #fff)" d="M5.571 16.716c-0.129-3.402 2.85-6.545 6.256-6.586 1.736-0.148 3.424 0.526 4.737 1.625-0.539 0.592-1.087 1.178-1.672 1.726-1.156-0.703-2.548-1.238-3.9-0.762-2.18 0.621-3.5 3.194-2.693 5.326 0.668 2.227 3.377 3.449 5.5 2.514 1.099-0.394 1.824-1.408 2.142-2.498-1.26-0.025-2.52-0.009-3.78-0.044-0.003-0.75-0.006-1.496-0.003-2.246 2.101-0.003 4.205-0.009 6.309 0.009 0.129 1.836-0.142 3.802-1.336 5.276-1.635 2.104-4.655 2.722-7.112 1.896-2.608-0.857-4.504-3.484-4.447-6.236z"></path>
<path fill="#fff" style="fill: var(--color2, #fff)" d="M22.561 13.881c0.624 0 1.247 0 1.874 0 0.003 0.627 0.009 1.257 0.013 1.884 0.627 0.006 1.257 0.009 1.884 0.013 0 0.627 0 1.25 0 1.877-0.627 0.003-1.257 0.006-1.884 0.009-0.006 0.63-0.009 1.257-0.013 1.887-0.627-0.003-1.254 0-1.877 0-0.006-0.63-0.006-1.257-0.013-1.884-0.627-0.007-1.257-0.009-1.884-0.013 0-0.627 0-1.25 0-1.877 0.627-0.003 1.254-0.006 1.884-0.013 0.003-0.626 0.009-1.256 0.016-1.883z"></path>
</symbol>
<symbol id="icon-twitter" viewBox="0 0 32 32">
<title>twitter</title>
<path fill="#55acee" style="fill: var(--color8, #55acee)" d="M32 16c0 8.836-7.163 16-16 16s-16-7.163-16-16c0-8.836 7.163-16 16-16s16 7.163 16 16z"></path>
<path fill="#f1f2f2" style="fill: var(--color9, #f1f2f2)" d="M25.801 11.499c-0.686 0.304-1.423 0.51-2.197 0.601 0.79-0.473 1.396-1.222 1.682-2.115-0.739 0.438-1.558 0.756-2.429 0.928-0.698-0.743-1.692-1.207-2.792-1.207-2.112 0-3.824 1.713-3.824 3.824 0 0.3 0.034 0.592 0.1 0.872-3.178-0.159-5.997-1.682-7.883-3.996-0.329 0.565-0.518 1.222-0.518 1.923 0 1.327 0.676 2.498 1.701 3.183-0.627-0.020-1.217-0.192-1.732-0.479-0 0.016-0 0.033-0 0.049 0 1.853 1.319 3.399 3.068 3.75-0.321 0.088-0.659 0.134-1.007 0.134-0.247 0-0.486-0.024-0.72-0.068 0.487 1.519 1.899 2.625 3.573 2.656-1.309 1.026-2.958 1.637-4.75 1.637-0.308 0-0.613-0.018-0.912-0.054 1.692 1.086 3.702 1.718 5.862 1.718 7.034 0 10.881-5.827 10.881-10.882 0-0.166-0.004-0.331-0.011-0.495 0.748-0.539 1.396-1.212 1.909-1.979v0z"></path>
</symbol>
</defs>
</svg>
